<svg width="197" height="165" viewBox="0 0 197 165" fill="none" xmlns="http://www.w3.org/2000/svg">
<g clip-path="url(#clip0_13_2)">
<path fill-rule="evenodd" clip-rule="evenodd" d="M54 90.4096H63.5L99.5 61.9961L49.5061 9.54814C31.2371 -8.72088 0 4.21805 0 30.0542V150.496C0 158.78 6.71573 165.496 15 165.496H39C47.2843 165.496 54 158.78 54 150.496V90.4096Z" fill="#F61D26"/>
<path d="M68 144.837V105.427C68 99.3281 70.7829 93.5625 75.558 89.7683L130.237 46.3215L162.898 7.97449C166.41 2.97546 172.136 0 178.245 0C188.603 0 197 8.39678 197 18.7547V74.1203C197 80.2193 194.217 85.9849 189.442 89.7791L100.442 160.496C87.3362 170.91 68 161.577 68 144.837Z" fill="#F61D26"/>
<path d="M161.133 126.072C175.586 114.2 197.338 124.481 197.338 143.185C197.338 155.417 187.422 165.332 175.191 165.332C154.399 165.332 145.067 139.269 161.133 126.072Z" fill="#F61D26"/>
</g>
<defs>
<clipPath id="clip0_13_2">
<rect width="197" height="165" rx="2" fill="white"/>
</clipPath>
</defs>
</svg>
