<svg width="678" height="170" viewBox="0 0 678 170" fill="none" xmlns="http://www.w3.org/2000/svg">
<g clip-path="url(#clip0_1_2)">
<path d="M237.564 1.574C239.426 1.574 241.386 2.652 242.562 4.51399L263.044 36.56L283.428 4.416C284.702 2.456 286.76 1.574 288.622 1.574C291.464 1.574 294.11 3.534 294.11 7.062V58.904C294.11 62.334 291.072 64 288.328 64C285.486 64 282.742 62.334 282.742 58.904V25.878L268.14 48.712C267.062 50.672 265.004 51.554 263.044 51.554C261.084 51.554 258.83 50.378 257.752 48.418L243.346 25.976V58.904C243.346 62.334 240.406 64 237.662 64C234.82 64 231.978 62.334 231.978 58.904V7.16C231.978 3.73 234.722 1.574 237.564 1.574ZM350.142 14.118C353.474 14.118 355.728 16.176 355.728 19.214V58.904C355.728 61.942 353.474 64 350.142 64C346.908 64 345.046 62.334 344.654 59.884C340.146 63.412 334.266 64.98 329.366 64.98C315.156 64.98 306.532 54.69 306.532 38.912C306.532 23.722 316.234 13.138 330.64 13.138C334.854 13.138 340.342 14.706 344.654 18.038C345.144 15.686 347.006 14.118 350.142 14.118ZM330.542 55.082C336.324 55.082 342.302 52.534 344.556 47.536V30.582C342.106 25.78 336.52 23.036 331.424 23.036C323.192 23.036 317.704 29.7 317.704 39.01C317.704 48.712 322.8 55.082 330.542 55.082ZM391.421 14.118C394.949 14.118 397.203 15.588 397.203 18.92C397.203 22.056 394.949 24.016 391.421 24.016C383.189 24.016 380.249 30.288 380.249 40.382V59.002C380.249 61.942 377.799 64 374.859 64C371.429 64 369.175 61.942 369.175 59.002V19.116C369.175 15.98 372.115 14.118 374.859 14.118C377.603 14.118 380.249 15.882 380.249 19.116V19.704C383.091 15.882 386.913 14.118 391.421 14.118ZM441.883 55.572C445.215 59.688 441.785 64 437.865 64C436.199 64 434.533 63.216 433.357 61.844L416.795 43.42L413.953 45.968V59.002C413.953 62.236 411.013 64 408.269 64C405.427 64 402.781 62.236 402.781 59.002V5.592C402.781 -1.072 413.953 -1.072 413.953 5.592V32.64L432.083 15.686C433.259 14.706 434.925 14.118 436.199 14.118C439.335 14.118 441.883 16.47 441.883 19.116C441.883 20.39 441.197 21.664 439.825 22.938L424.439 36.56L441.883 55.572ZM474.337 55.278C478.061 55.278 481.883 54.298 485.019 51.848C490.997 46.458 497.857 53.906 492.369 59.1C487.763 63.51 481.099 65.078 474.631 64.98C459.245 64.98 448.759 54.886 448.759 40.186C448.759 24.114 458.657 13.138 474.337 13.138C490.017 13.138 498.837 23.428 498.935 38.618C498.935 41.852 498.347 44.498 492.761 44.498H460.127C461.891 50.868 467.379 55.278 474.337 55.278ZM474.435 22.84C466.791 22.84 461.401 28.034 460.029 35.776H488.547C487.861 28.034 483.647 22.84 474.435 22.84ZM531.829 54.69C536.239 52.24 539.963 55.18 539.963 58.61C539.963 60.276 538.983 62.138 536.729 63.314C533.789 64.882 531.829 64.98 528.693 64.98C515.953 64.98 512.915 56.062 512.915 46.556V23.428H509.191C505.565 23.428 503.801 21.076 503.801 18.822C503.801 16.47 505.663 14.118 509.191 14.118H512.915V5.69C512.915 2.358 515.561 0.593999 518.403 0.593999C521.147 0.593999 523.989 2.358 523.989 5.69V14.118H531.633C535.063 14.118 536.925 16.47 536.925 18.822C536.925 21.174 535.063 23.428 531.633 23.428H523.989V46.556C523.989 50.868 524.479 55.376 528.693 55.376C529.673 55.376 531.143 54.984 531.829 54.69ZM557.286 6.76799C557.286 10.1 554.346 11.668 551.602 11.668C548.662 11.668 545.918 10.1 545.918 6.76799V5.494C545.918 2.162 548.662 0.593999 551.602 0.593999C554.346 0.593999 557.286 2.162 557.286 5.494V6.76799ZM546.016 18.92C546.016 15.784 548.956 14.118 551.602 14.118C554.346 14.118 557.188 15.784 557.188 18.822V59.198C557.188 62.432 554.346 64 551.602 64C548.956 64 546.016 62.432 546.016 59.198V18.92ZM595.422 13.138C609.044 13.138 616.982 22.742 616.982 36.756V58.904C616.982 61.942 614.924 64 611.396 64C608.064 64 605.81 61.942 605.81 58.904V36.56C605.81 28.426 602.086 22.938 593.756 22.938C588.66 22.938 578.468 28.23 578.468 39.696V59.002C578.468 62.138 576.606 64 573.078 64C569.648 64 567.296 62.138 567.296 59.002V19.116C567.296 15.882 570.04 14.118 572.882 14.118C575.626 14.118 578.468 15.882 578.468 18.92V19.606C584.054 14.412 590.424 13.138 595.422 13.138ZM671.327 14.118C674.757 14.118 677.011 16.666 677.011 19.704V60.962C677.011 75.368 666.035 82.816 652.315 82.816C644.671 82.816 638.693 81.15 633.401 76.152C628.109 70.86 635.459 63.902 640.751 68.508C644.769 72.036 647.807 72.722 652.315 72.722C659.371 72.722 666.035 69.096 666.035 60.962V60.08C661.625 63.412 655.941 64.98 651.433 64.98C637.223 64.98 627.717 54.69 627.717 38.912C627.717 23.722 637.419 13.138 651.825 13.138C656.235 13.138 661.625 14.314 666.035 17.548C666.721 15.392 668.485 14.118 671.327 14.118ZM651.727 55.082C657.705 55.082 663.879 52.436 665.937 47.242V30.876C663.487 25.878 657.803 23.036 652.609 23.036C644.377 23.036 638.889 29.7 638.889 39.01C638.889 48.712 643.985 55.082 651.727 55.082ZM237.564 104.574C239.426 104.574 241.386 105.652 242.562 107.514L263.044 139.56L283.428 107.416C284.702 105.456 286.76 104.574 288.622 104.574C291.464 104.574 294.11 106.534 294.11 110.062V161.904C294.11 165.334 291.072 167 288.328 167C285.486 167 282.742 165.334 282.742 161.904V128.878L268.14 151.712C267.062 153.672 265.004 154.554 263.044 154.554C261.084 154.554 258.83 153.378 257.752 151.418L243.346 128.976V161.904C243.346 165.334 240.406 167 237.662 167C234.82 167 231.978 165.334 231.978 161.904V110.16C231.978 106.73 234.722 104.574 237.564 104.574ZM350.142 117.118C353.474 117.118 355.728 119.176 355.728 122.214V161.904C355.728 164.942 353.474 167 350.142 167C346.908 167 345.046 165.334 344.654 162.884C340.146 166.412 334.266 167.98 329.366 167.98C315.156 167.98 306.532 157.69 306.532 141.912C306.532 126.722 316.234 116.138 330.64 116.138C334.854 116.138 340.342 117.706 344.654 121.038C345.144 118.686 347.006 117.118 350.142 117.118ZM330.542 158.082C336.324 158.082 342.302 155.534 344.556 150.536V133.582C342.106 128.78 336.52 126.036 331.424 126.036C323.192 126.036 317.704 132.7 317.704 142.01C317.704 151.712 322.8 158.082 330.542 158.082ZM379.661 109.768C379.661 113.1 376.721 114.668 373.977 114.668C371.037 114.668 368.293 113.1 368.293 109.768V108.494C368.293 105.162 371.037 103.594 373.977 103.594C376.721 103.594 379.661 105.162 379.661 108.494V109.768ZM368.391 121.92C368.391 118.784 371.331 117.118 373.977 117.118C376.721 117.118 379.563 118.784 379.563 121.822V162.198C379.563 165.432 376.721 167 373.977 167C371.331 167 368.391 165.432 368.391 162.198V121.92ZM411.721 157.69C416.131 155.24 419.855 158.18 419.855 161.61C419.855 163.276 418.875 165.138 416.621 166.314C413.681 167.882 411.721 167.98 408.585 167.98C395.845 167.98 392.807 159.062 392.807 149.556V126.428H389.083C385.457 126.428 383.693 124.076 383.693 121.822C383.693 119.47 385.555 117.118 389.083 117.118H392.807V108.69C392.807 105.358 395.453 103.594 398.295 103.594C401.039 103.594 403.881 105.358 403.881 108.69V117.118H411.525C414.955 117.118 416.817 119.47 416.817 121.822C416.817 124.174 414.955 126.428 411.525 126.428H403.881V149.556C403.881 153.868 404.371 158.376 408.585 158.376C409.565 158.376 411.035 157.984 411.721 157.69ZM448.939 117.118C452.467 117.118 454.721 118.588 454.721 121.92C454.721 125.056 452.467 127.016 448.939 127.016C440.707 127.016 437.767 133.288 437.767 143.382V162.002C437.767 164.942 435.317 167 432.377 167C428.947 167 426.693 164.942 426.693 162.002V122.116C426.693 118.98 429.633 117.118 432.377 117.118C435.121 117.118 437.767 118.882 437.767 122.116V122.704C440.609 118.882 444.431 117.118 448.939 117.118ZM482.567 158.278C486.291 158.278 490.113 157.298 493.249 154.848C499.227 149.458 506.087 156.906 500.599 162.1C495.993 166.51 489.329 168.078 482.861 167.98C467.475 167.98 456.989 157.886 456.989 143.186C456.989 127.114 466.887 116.138 482.567 116.138C498.247 116.138 507.067 126.428 507.165 141.618C507.165 144.852 506.577 147.498 500.991 147.498H468.357C470.121 153.868 475.609 158.278 482.567 158.278ZM482.665 125.84C475.021 125.84 469.631 131.034 468.259 138.776H496.777C496.091 131.034 491.877 125.84 482.665 125.84ZM516.489 155.338C515.509 151.712 518.939 149.262 522.075 149.262C524.427 149.262 526.387 150.634 527.269 153.378C528.445 156.906 534.325 158.376 539.617 158.376C546.673 158.376 551.377 155.534 551.377 151.614C551.377 147.498 545.497 147.106 539.225 146.616C528.347 145.636 516.783 144.656 516.783 131.818C516.783 122.41 525.603 116.138 538.833 116.138C546.477 116.138 557.159 117.51 560.785 126.82C562.059 130.838 558.433 133.386 555.297 133.386C552.945 133.386 551.475 132.602 550.495 130.348C548.633 126.232 542.361 125.84 538.833 125.84C532.267 125.84 527.955 128.29 527.955 131.916C527.955 136.718 533.149 135.836 539.813 136.62C550.789 137.894 562.549 138.678 562.549 151.614C562.549 161.316 553.337 167.98 539.617 167.98C531.385 167.98 519.331 166.216 516.489 155.338Z" fill="white"/>
<path fill-rule="evenodd" clip-rule="evenodd" d="M54 92.4096H63.5L99.5 63.9961L49.5061 11.5481C31.2371 -6.72088 0 6.21805 0 32.0542V152.496C0 160.78 6.71573 167.496 15 167.496H39C47.2843 167.496 54 160.78 54 152.496V92.4096Z" fill="#F61D26"/>
<path d="M68 146.837V107.427C68 101.328 70.7829 95.5625 75.558 91.7683L130.237 48.3215L162.898 9.97449C166.41 4.97546 172.136 2 178.245 2C188.603 2 197 10.3968 197 20.7547V76.1203C197 82.2193 194.217 87.9849 189.442 91.7791L100.442 162.496C87.3362 172.91 68 163.577 68 146.837Z" fill="#F61D26"/>
<path d="M161.133 128.072C175.586 116.2 197.338 126.481 197.338 145.185C197.338 157.417 187.422 167.332 175.191 167.332C154.399 167.332 145.067 141.269 161.133 128.072Z" fill="#F61D26"/>
</g>
<defs>
<clipPath id="clip0_1_2">
<rect width="678" height="170" rx="2" fill="white"/>
</clipPath>
</defs>
</svg>
