<svg width="678" height="165" viewBox="0 0 678 165" fill="none" xmlns="http://www.w3.org/2000/svg">
<g clip-path="url(#clip0_10_96)">
<path d="M237.564 -0.426002C239.426 -0.426002 241.386 0.651995 242.562 2.51399L263.044 34.56L283.428 2.416C284.702 0.455998 286.76 -0.426002 288.622 -0.426002C291.464 -0.426002 294.11 1.534 294.11 5.062V56.904C294.11 60.334 291.072 62 288.328 62C285.486 62 282.742 60.334 282.742 56.904V23.878L268.14 46.712C267.062 48.672 265.004 49.554 263.044 49.554C261.084 49.554 258.83 48.378 257.752 46.418L243.346 23.976V56.904C243.346 60.334 240.406 62 237.662 62C234.82 62 231.978 60.334 231.978 56.904V5.16C231.978 1.73 234.722 -0.426002 237.564 -0.426002ZM350.142 12.118C353.474 12.118 355.728 14.176 355.728 17.214V56.904C355.728 59.942 353.474 62 350.142 62C346.908 62 345.046 60.334 344.654 57.884C340.146 61.412 334.266 62.98 329.366 62.98C315.156 62.98 306.532 52.69 306.532 36.912C306.532 21.722 316.234 11.138 330.64 11.138C334.854 11.138 340.342 12.706 344.654 16.038C345.144 13.686 347.006 12.118 350.142 12.118ZM330.542 53.082C336.324 53.082 342.302 50.534 344.556 45.536V28.582C342.106 23.78 336.52 21.036 331.424 21.036C323.192 21.036 317.704 27.7 317.704 37.01C317.704 46.712 322.8 53.082 330.542 53.082ZM391.421 12.118C394.949 12.118 397.203 13.588 397.203 16.92C397.203 20.056 394.949 22.016 391.421 22.016C383.189 22.016 380.249 28.288 380.249 38.382V57.002C380.249 59.942 377.799 62 374.859 62C371.429 62 369.175 59.942 369.175 57.002V17.116C369.175 13.98 372.115 12.118 374.859 12.118C377.603 12.118 380.249 13.882 380.249 17.116V17.704C383.091 13.882 386.913 12.118 391.421 12.118ZM441.883 53.572C445.215 57.688 441.785 62 437.865 62C436.199 62 434.533 61.216 433.357 59.844L416.795 41.42L413.953 43.968V57.002C413.953 60.236 411.013 62 408.269 62C405.427 62 402.781 60.236 402.781 57.002V3.592C402.781 -3.072 413.953 -3.072 413.953 3.592V30.64L432.083 13.686C433.259 12.706 434.925 12.118 436.199 12.118C439.335 12.118 441.883 14.47 441.883 17.116C441.883 18.39 441.197 19.664 439.825 20.938L424.439 34.56L441.883 53.572ZM474.337 53.278C478.061 53.278 481.883 52.298 485.019 49.848C490.997 44.458 497.857 51.906 492.369 57.1C487.763 61.51 481.099 63.078 474.631 62.98C459.245 62.98 448.759 52.886 448.759 38.186C448.759 22.114 458.657 11.138 474.337 11.138C490.017 11.138 498.837 21.428 498.935 36.618C498.935 39.852 498.347 42.498 492.761 42.498H460.127C461.891 48.868 467.379 53.278 474.337 53.278ZM474.435 20.84C466.791 20.84 461.401 26.034 460.029 33.776H488.547C487.861 26.034 483.647 20.84 474.435 20.84ZM531.829 52.69C536.239 50.24 539.963 53.18 539.963 56.61C539.963 58.276 538.983 60.138 536.729 61.314C533.789 62.882 531.829 62.98 528.693 62.98C515.953 62.98 512.915 54.062 512.915 44.556V21.428H509.191C505.565 21.428 503.801 19.076 503.801 16.822C503.801 14.47 505.663 12.118 509.191 12.118H512.915V3.69C512.915 0.357999 515.561 -1.406 518.403 -1.406C521.147 -1.406 523.989 0.357999 523.989 3.69V12.118H531.633C535.063 12.118 536.925 14.47 536.925 16.822C536.925 19.174 535.063 21.428 531.633 21.428H523.989V44.556C523.989 48.868 524.479 53.376 528.693 53.376C529.673 53.376 531.143 52.984 531.829 52.69ZM557.286 4.76799C557.286 8.1 554.346 9.668 551.602 9.668C548.662 9.668 545.918 8.1 545.918 4.76799V3.494C545.918 0.161996 548.662 -1.406 551.602 -1.406C554.346 -1.406 557.286 0.161996 557.286 3.494V4.76799ZM546.016 16.92C546.016 13.784 548.956 12.118 551.602 12.118C554.346 12.118 557.188 13.784 557.188 16.822V57.198C557.188 60.432 554.346 62 551.602 62C548.956 62 546.016 60.432 546.016 57.198V16.92ZM595.422 11.138C609.044 11.138 616.982 20.742 616.982 34.756V56.904C616.982 59.942 614.924 62 611.396 62C608.064 62 605.81 59.942 605.81 56.904V34.56C605.81 26.426 602.086 20.938 593.756 20.938C588.66 20.938 578.468 26.23 578.468 37.696V57.002C578.468 60.138 576.606 62 573.078 62C569.648 62 567.296 60.138 567.296 57.002V17.116C567.296 13.882 570.04 12.118 572.882 12.118C575.626 12.118 578.468 13.882 578.468 16.92V17.606C584.054 12.412 590.424 11.138 595.422 11.138ZM671.327 12.118C674.757 12.118 677.011 14.666 677.011 17.704V58.962C677.011 73.368 666.035 80.816 652.315 80.816C644.671 80.816 638.693 79.15 633.401 74.152C628.109 68.86 635.459 61.902 640.751 66.508C644.769 70.036 647.807 70.722 652.315 70.722C659.371 70.722 666.035 67.096 666.035 58.962V58.08C661.625 61.412 655.941 62.98 651.433 62.98C637.223 62.98 627.717 52.69 627.717 36.912C627.717 21.722 637.419 11.138 651.825 11.138C656.235 11.138 661.625 12.314 666.035 15.548C666.721 13.392 668.485 12.118 671.327 12.118ZM651.727 53.082C657.705 53.082 663.879 50.436 665.937 45.242V28.876C663.487 23.878 657.803 21.036 652.609 21.036C644.377 21.036 638.889 27.7 638.889 37.01C638.889 46.712 643.985 53.082 651.727 53.082ZM237.564 102.574C239.426 102.574 241.386 103.652 242.562 105.514L263.044 137.56L283.428 105.416C284.702 103.456 286.76 102.574 288.622 102.574C291.464 102.574 294.11 104.534 294.11 108.062V159.904C294.11 163.334 291.072 165 288.328 165C285.486 165 282.742 163.334 282.742 159.904V126.878L268.14 149.712C267.062 151.672 265.004 152.554 263.044 152.554C261.084 152.554 258.83 151.378 257.752 149.418L243.346 126.976V159.904C243.346 163.334 240.406 165 237.662 165C234.82 165 231.978 163.334 231.978 159.904V108.16C231.978 104.73 234.722 102.574 237.564 102.574ZM350.142 115.118C353.474 115.118 355.728 117.176 355.728 120.214V159.904C355.728 162.942 353.474 165 350.142 165C346.908 165 345.046 163.334 344.654 160.884C340.146 164.412 334.266 165.98 329.366 165.98C315.156 165.98 306.532 155.69 306.532 139.912C306.532 124.722 316.234 114.138 330.64 114.138C334.854 114.138 340.342 115.706 344.654 119.038C345.144 116.686 347.006 115.118 350.142 115.118ZM330.542 156.082C336.324 156.082 342.302 153.534 344.556 148.536V131.582C342.106 126.78 336.52 124.036 331.424 124.036C323.192 124.036 317.704 130.7 317.704 140.01C317.704 149.712 322.8 156.082 330.542 156.082ZM379.661 107.768C379.661 111.1 376.721 112.668 373.977 112.668C371.037 112.668 368.293 111.1 368.293 107.768V106.494C368.293 103.162 371.037 101.594 373.977 101.594C376.721 101.594 379.661 103.162 379.661 106.494V107.768ZM368.391 119.92C368.391 116.784 371.331 115.118 373.977 115.118C376.721 115.118 379.563 116.784 379.563 119.822V160.198C379.563 163.432 376.721 165 373.977 165C371.331 165 368.391 163.432 368.391 160.198V119.92ZM411.721 155.69C416.131 153.24 419.855 156.18 419.855 159.61C419.855 161.276 418.875 163.138 416.621 164.314C413.681 165.882 411.721 165.98 408.585 165.98C395.845 165.98 392.807 157.062 392.807 147.556V124.428H389.083C385.457 124.428 383.693 122.076 383.693 119.822C383.693 117.47 385.555 115.118 389.083 115.118H392.807V106.69C392.807 103.358 395.453 101.594 398.295 101.594C401.039 101.594 403.881 103.358 403.881 106.69V115.118H411.525C414.955 115.118 416.817 117.47 416.817 119.822C416.817 122.174 414.955 124.428 411.525 124.428H403.881V147.556C403.881 151.868 404.371 156.376 408.585 156.376C409.565 156.376 411.035 155.984 411.721 155.69ZM448.939 115.118C452.467 115.118 454.721 116.588 454.721 119.92C454.721 123.056 452.467 125.016 448.939 125.016C440.707 125.016 437.767 131.288 437.767 141.382V160.002C437.767 162.942 435.317 165 432.377 165C428.947 165 426.693 162.942 426.693 160.002V120.116C426.693 116.98 429.633 115.118 432.377 115.118C435.121 115.118 437.767 116.882 437.767 120.116V120.704C440.609 116.882 444.431 115.118 448.939 115.118ZM482.567 156.278C486.291 156.278 490.113 155.298 493.249 152.848C499.227 147.458 506.087 154.906 500.599 160.1C495.993 164.51 489.329 166.078 482.861 165.98C467.475 165.98 456.989 155.886 456.989 141.186C456.989 125.114 466.887 114.138 482.567 114.138C498.247 114.138 507.067 124.428 507.165 139.618C507.165 142.852 506.577 145.498 500.991 145.498H468.357C470.121 151.868 475.609 156.278 482.567 156.278ZM482.665 123.84C475.021 123.84 469.631 129.034 468.259 136.776H496.777C496.091 129.034 491.877 123.84 482.665 123.84ZM516.489 153.338C515.509 149.712 518.939 147.262 522.075 147.262C524.427 147.262 526.387 148.634 527.269 151.378C528.445 154.906 534.325 156.376 539.617 156.376C546.673 156.376 551.377 153.534 551.377 149.614C551.377 145.498 545.497 145.106 539.225 144.616C528.347 143.636 516.783 142.656 516.783 129.818C516.783 120.41 525.603 114.138 538.833 114.138C546.477 114.138 557.159 115.51 560.785 124.82C562.059 128.838 558.433 131.386 555.297 131.386C552.945 131.386 551.475 130.602 550.495 128.348C548.633 124.232 542.361 123.84 538.833 123.84C532.267 123.84 527.955 126.29 527.955 129.916C527.955 134.718 533.149 133.836 539.813 134.62C550.789 135.894 562.549 136.678 562.549 149.614C562.549 159.316 553.337 165.98 539.617 165.98C531.385 165.98 519.331 164.216 516.489 153.338Z" fill="white"/>
<path fill-rule="evenodd" clip-rule="evenodd" d="M54 90.4096H63.5L99.5 61.9961L49.5061 9.54814C31.2371 -8.72088 0 4.21805 0 30.0542V150.496C0 158.78 6.71573 165.496 15 165.496H39C47.2843 165.496 54 158.78 54 150.496V90.4096Z" fill="#F61D26"/>
<path d="M68 144.837V105.427C68 99.3281 70.7829 93.5625 75.558 89.7683L130.237 46.3215L162.898 7.97449C166.41 2.97546 172.136 0 178.245 0C188.603 0 197 8.39678 197 18.7547V74.1203C197 80.2193 194.217 85.9849 189.442 89.7791L100.442 160.496C87.3362 170.91 68 161.577 68 144.837Z" fill="#F61D26"/>
<path d="M161.133 126.072C175.586 114.2 197.338 124.481 197.338 143.185C197.338 155.417 187.422 165.332 175.191 165.332C154.399 165.332 145.067 139.269 161.133 126.072Z" fill="#F61D26"/>
</g>
<defs>
<clipPath id="clip0_10_96">
<rect width="678" height="165" rx="2" fill="white"/>
</clipPath>
</defs>
</svg>
